# xmcd
#
# Track frame offsets:
#	150
#	19913
#	65629
#	94855
#	131694
#
# Disc length: 2635 seconds
#
# Revision: 0
# Processed by: cddbd v1.5.2PL0 Copyright (c) Steve Scherf et al.
# Submitted via: EasyCDDAExtractor 11.5.3.1
#
DISCID=420a4905
DTITLE=Gil Scott-Heron - Tales of Gil Scott-Heron [CD2]
DYEAR=1990
DGENRE=Soul
TTITLE0=Gun
TTITLE1=Blue Collar
TTITLE2=Alien (Hold on to Your Dreams)
TTITLE3=Three Miles Down
TTITLE4=The Bottle
EXTD=
EXTT0=
EXTT1=
EXTT2=
EXTT3=
EXTT4=
PLAYORDER=
